<?xml version="1.0" encoding="utf-8"?>
<svg version="1.1" xmlns:xlink="http://www.w3.org/1999/xlink" width="22px" height="22px" xmlns="http://www.w3.org/2000/svg">
  <g transform="matrix(1 0 0 1 -917 -74 )">
    <path d="M 13.4921875 13.4921875  C 14.6512419871795 12.3331330128205  15.2307692307692 10.9383012820513  15.2307692307692 9.30769230769231  C 15.2307692307692 7.67708333333333  14.6512419871795 6.2822516025641  13.4921875 5.12319711538462  C 12.3331330128205 3.96414262820513  10.9383012820513 3.38461538461539  9.30769230769231 3.38461538461539  C 7.67708333333333 3.38461538461539  6.2822516025641 3.96414262820513  5.12319711538462 5.12319711538462  C 3.96414262820513 6.2822516025641  3.38461538461539 7.67708333333333  3.38461538461539 9.30769230769231  C 3.38461538461539 10.9383012820513  3.96414262820513 12.3331330128205  5.12319711538462 13.4921875  C 6.2822516025641 14.6512419871795  7.67708333333333 15.2307692307692  9.30769230769231 15.2307692307692  C 10.9383012820513 15.2307692307692  12.3331330128205 14.6512419871795  13.4921875 13.4921875  Z M 21.5108173076923 19.1177884615385  C 21.8369391025641 19.4439102564103  22 19.8405448717949  22 20.3076923076923  C 22 20.7660256410256  21.8325320512821 21.1626602564103  21.4975961538462 21.4975961538462  C 21.1626602564103 21.8325320512821  20.7660256410256 22  20.3076923076923 22  C 19.8317307692308 22  19.4350961538462 21.8325320512821  19.1177884615385 21.4975961538462  L 14.5829326923077 16.9759615384615  C 13.0052083333333 18.0689102564103  11.2467948717949 18.6153846153846  9.30769230769231 18.6153846153846  C 8.04727564102564 18.6153846153846  6.84194711538462 18.3707932692308  5.69170673076923 17.8816105769231  C 4.54146634615385 17.3924278846154  3.54987980769231 16.7313701923077  2.71694711538462 15.8984375  C 1.88401442307692 15.0655048076923  1.22295673076923 14.0739182692308  0.733774038461538 12.9236778846154  C 0.244591346153846 11.7734375  0 10.568108974359  0 9.30769230769231  C 0 8.04727564102564  0.244591346153846 6.84194711538462  0.733774038461538 5.69170673076923  C 1.22295673076923 4.54146634615385  1.88401442307692 3.54987980769231  2.71694711538462 2.71694711538462  C 3.54987980769231 1.88401442307692  4.54146634615385 1.22295673076923  5.69170673076923 0.733774038461539  C 6.84194711538462 0.244591346153846  8.04727564102564 0  9.30769230769231 0  C 10.568108974359 0  11.7734375 0.244591346153846  12.9236778846154 0.733774038461539  C 14.0739182692308 1.22295673076923  15.0655048076923 1.88401442307692  15.8984375 2.71694711538462  C 16.7313701923077 3.54987980769231  17.3924278846154 4.54146634615385  17.8816105769231 5.69170673076923  C 18.3707932692308 6.84194711538462  18.6153846153846 8.04727564102564  18.6153846153846 9.30769230769231  C 18.6153846153846 11.2467948717949  18.0689102564103 13.0052083333333  16.9759615384615 14.5829326923077  L 21.5108173076923 19.1177884615385  Z " fill-rule="nonzero" fill="#000000" stroke="none" transform="matrix(1 0 0 1 917 74 )" />
  </g>
</svg>