<?xml version="1.0" encoding="utf-8"?>
<svg version="1.1" xmlns:xlink="http://www.w3.org/1999/xlink" width="16px" height="19px" xmlns="http://www.w3.org/2000/svg">
  <g transform="matrix(1 0 0 1 -143 -570 )">
    <path d="M 15.7934782608696 15.1300223214286  C 15.9311594202899 15.2643229166667  16 15.4233630952381  16 15.6071428571429  C 16 15.7909226190476  15.9311594202899 15.949962797619  15.7934782608696 16.0842633928571  C 15.6557971014493 16.2185639880952  15.4927536231884 16.2857142857143  15.304347826087 16.2857142857143  L 10.2826086956522 16.2857142857143  C 10.2898550724638 16.4058779761905  10.3115942028986 16.7151227678571  10.3478260869565 17.2134486607143  C 10.3840579710145 17.7117745535714  10.4021739130435 18.0952380952381  10.4021739130435 18.3638392857143  C 10.4021739130435 18.5405505952381  10.3369565217391 18.6907552083333  10.2065217391304 18.814453125  C 10.0760869565217 18.9381510416667  9.92028985507246 19  9.73913043478261 19  L 6.26086956521739 19  C 6.07971014492754 19  5.92391304347826 18.9381510416667  5.79347826086957 18.814453125  C 5.66304347826087 18.6907552083333  5.59782608695652 18.5405505952381  5.59782608695652 18.3638392857143  C 5.59782608695652 18.0952380952381  5.61594202898551 17.7117745535714  5.65217391304348 17.2134486607143  C 5.68840579710145 16.7151227678571  5.71014492753623 16.4058779761905  5.71739130434783 16.2857142857143  L 0.695652173913043 16.2857142857143  C 0.507246376811594 16.2857142857143  0.344202898550725 16.2185639880952  0.206521739130435 16.0842633928571  C 0.068840579710145 15.949962797619  0 15.7909226190476  0 15.6071428571429  C 0 15.4233630952381  0.068840579710145 15.2643229166667  0.206521739130435 15.1300223214286  L 4.57608695652174 10.8571428571429  L 2.08695652173913 10.8571428571429  C 1.89855072463768 10.8571428571429  1.73550724637681 10.7899925595238  1.59782608695652 10.6556919642857  C 1.46014492753623 10.5213913690476  1.39130434782609 10.3623511904762  1.39130434782609 10.1785714285714  C 1.39130434782609 9.99479166666667  1.46014492753623 9.83575148809524  1.59782608695652 9.70145089285714  L 5.96739130434783 5.42857142857143  L 3.82608695652174 5.42857142857143  C 3.63768115942029 5.42857142857143  3.47463768115942 5.36142113095238  3.33695652173913 5.22712053571428  C 3.19927536231884 5.09281994047619  3.1304347826087 4.93377976190476  3.1304347826087 4.75  C 3.1304347826087 4.56622023809524  3.19927536231884 4.40718005952381  3.33695652173913 4.27287946428572  L 7.51086956521739 0.201450892857143  C 7.64855072463768 0.0671502976190492  7.81159420289855 0  8 0  C 8.18840579710145 0  8.35144927536232 0.0671502976190492  8.48913043478261 0.201450892857143  L 12.6630434782609 4.27287946428572  C 12.8007246376812 4.40718005952381  12.8695652173913 4.56622023809524  12.8695652173913 4.75  C 12.8695652173913 4.93377976190476  12.8007246376812 5.09281994047619  12.6630434782609 5.22712053571428  C 12.5253623188406 5.36142113095238  12.3623188405797 5.42857142857143  12.1739130434783 5.42857142857143  L 10.0326086956522 5.42857142857143  L 14.4021739130435 9.70145089285714  C 14.5398550724638 9.83575148809524  14.6086956521739 9.99479166666667  14.6086956521739 10.1785714285714  C 14.6086956521739 10.3623511904762  14.5398550724638 10.5213913690476  14.4021739130435 10.6556919642857  C 14.2644927536232 10.7899925595238  14.1014492753623 10.8571428571429  13.9130434782609 10.8571428571429  L 11.4239130434783 10.8571428571429  L 15.7934782608696 15.1300223214286  Z " fill-rule="nonzero" fill="#000000" stroke="none" transform="matrix(1 0 0 1 143 570 )" />
  </g>
</svg>