<?xml version="1.0" encoding="utf-8"?>
<svg version="1.1" xmlns:xlink="http://www.w3.org/1999/xlink" width="18px" height="18px" xmlns="http://www.w3.org/2000/svg">
  <g transform="matrix(1 0 0 1 -210 -571 )">
    <path d="M 12.7443915703603 15.779296875  C 13.800815771584 15.298828125  14.700203942896 14.62890625  15.4425560842964 13.76953125  C 15.0020394289599 13.83984375  14.5533650577838 13.875  14.0965329707682 13.875  C 12.6118286879674 13.875  11.2372535690007 13.5234375  9.97280761386812 12.8203125  C 8.70836165873556 12.1171875  7.70904146838885 11.16015625  6.97484704282801 9.94921875  C 6.24065261726717 8.73828125  5.87355540448675 7.421875  5.87355540448674 6  C 5.87355540448675 4.5  6.29775662814412 3.10546875  7.14615907545887 1.81640625  C 5.50645819170632 2.28515625  4.16655336505778 3.1796875  3.12644459551326 4.5  C 2.08633582596873 5.8203125  1.56628144119646 7.3203125  1.56628144119646 9  C 1.56628144119646 10.015625  1.77430319510537 10.986328125  2.19034670292318 11.912109375  C 2.60639021074099 12.837890625  3.1631543167913 13.634765625  3.8606390210741 14.302734375  C 4.5581237253569 14.970703125  5.39021074099252 15.50390625  6.35690006798097 15.90234375  C 7.32358939496941 16.30078125  8.33718558803535 16.5  9.39768864717879 16.5  C 10.5723997280761 16.5  11.6879673691366 16.259765625  12.7443915703603 15.779296875  Z M 17.981645139361 12.328125  C 18.0101971447995 12.484375  17.9918422841604 12.6328125  17.9265805574439 12.7734375  C 17.1597552685248 14.359375  16.0033990482665 15.626953125  14.4575118966689 16.576171875  C 12.9116247450714 17.525390625  11.2250169952413 18  9.39768864717879 18  C 8.12508497620666 18  6.90958531611149 17.76171875  5.75118966689327 17.28515625  C 4.59279401767505 16.80859375  3.59347382732835 16.16796875  2.75322909585316 15.36328125  C 1.91298436437797 14.55859375  1.24405166553365 13.6015625  0.74643099932019 12.4921875  C 0.24881033310673 11.3828125  0 10.21875  0 9  C 0 7.8046875  0.234534330387492 6.662109375  0.703602991162475 5.572265625  C 1.17267165193746 4.482421875  1.80897348742352 3.5390625  2.61250849762067 2.7421875  C 3.41604350781781 1.9453125  4.37661454792658 1.302734375  5.49422161794697 0.814453125000001  C 6.61182868796737 0.326171875  7.79469748470428 0.0585937500000007  9.04282800815772 0.0117187499999993  C 9.40176750509857 -0.00390625000000311  9.6505778382053 0.148437499999998  9.78925900747791 0.468749999999999  C 9.93609789259007 0.789062499999998  9.87491502379334 1.0703125  9.6057104010877 1.3125  C 8.90414683888511 1.921875  8.36777702243372 2.630859375  7.99660095173351 3.439453125  C 7.62542488103331 4.248046875  7.43983684568321 5.1015625  7.43983684568321 6  C 7.43983684568321 7.15625  7.73759347382733 8.22265625  8.33310673011557 9.19921875  C 8.92861998640381 10.17578125  9.73623385452074 10.94921875  10.7559483344663 11.51953125  C 11.775662814412 12.08984375  12.8891910265126 12.375  14.0965329707682 12.375  C 15.0591434398368 12.375  15.9891230455472 12.17578125  16.8864717878994 11.77734375  C 17.2209381373216 11.63671875  17.5146159075459 11.6875  17.7675050985724 11.9296875  C 17.8817131203263 12.0390625  17.9530931339225 12.171875  17.981645139361 12.328125  Z " fill-rule="nonzero" fill="#000000" stroke="none" transform="matrix(1 0 0 1 210 571 )" />
  </g>
</svg>