<?xml version="1.0" encoding="utf-8"?>
<svg version="1.1" xmlns:xlink="http://www.w3.org/1999/xlink" width="19px" height="18px" xmlns="http://www.w3.org/2000/svg">
  <g transform="matrix(1 0 0 1 -278 -571 )">
    <path d="M 9.5 8.47125  C 9.73597756410256 8.47125  9.97956730769231 8.5125  10.2307692307692 8.595  L 10.2307692307692 15.12  C 10.2307692307692 15.9  9.94150641025641 16.575  9.36298076923077 17.145  C 8.78445512820513 17.715  8.09935897435897 18  7.30769230769231 18  C 6.51602564102564 18  5.83092948717949 17.715  5.25240384615385 17.145  C 4.67387820512821 16.575  4.38461538461539 15.9  4.38461538461539 15.12  C 4.38461538461539 14.925  4.45693108974359 14.75625  4.6015625 14.61375  C 4.74619391025641 14.47125  4.91746794871795 14.4  5.11538461538462 14.4  C 5.31330128205128 14.4  5.48457532051282 14.47125  5.62920673076923 14.61375  C 5.77383814102564 14.75625  5.84615384615385 14.925  5.84615384615385 15.12  C 5.84615384615385 15.495  5.99459134615385 15.82875  6.29146634615385 16.12125  C 6.58834134615385 16.41375  6.92708333333333 16.56  7.30769230769231 16.56  C 7.68830128205128 16.56  8.02704326923077 16.41375  8.32391826923077 16.12125  C 8.62079326923077 15.82875  8.76923076923077 15.495  8.76923076923077 15.12  L 8.76923076923077 8.595  C 9.02043269230769 8.5125  9.26402243589744 8.47125  9.5 8.47125  Z M 18.9885817307692 8.82  C 18.9961939102564 8.835  19 8.86125  19 8.89875  C 19 8.99625  18.9638421474359 9.080625  18.8915264423077 9.151875  C 18.8192107371795 9.223125  18.7335737179487 9.25875  18.6346153846154 9.25875  C 18.5508814102564 9.25875  18.4633413461538 9.22125  18.3719951923077 9.14625  C 17.9989983974359 8.80125  17.6450320512821 8.5425  17.3100961538462 8.37  C 16.9751602564103 8.1975  16.5869391025641 8.11125  16.1454326923077 8.11125  C 15.6278044871795 8.11125  15.140625 8.25  14.6838942307692 8.5275  C 14.2271634615385 8.805  13.8351362179487 9.16875  13.5078125 9.61875  C 13.4545272435897 9.69375  13.3879206730769 9.79875  13.3079927884615 9.93375  C 13.2280649038462 10.06875  13.1728766025641 10.15875  13.1424278846154 10.20375  C 13.0586939102564 10.33125  12.9521233974359 10.395  12.8227163461538 10.395  C 12.6856971153846 10.395  12.5753205128205 10.33125  12.4915865384615 10.20375  C 12.4611378205128 10.15875  12.4059495192308 10.06875  12.3260216346154 9.93375  C 12.24609375 9.79875  12.1794871794872 9.69375  12.1262019230769 9.61875  C 11.7988782051282 9.16875  11.4087540064103 8.805  10.9558293269231 8.5275  C 10.5029046474359 8.25  10.0176282051282 8.11125  9.5 8.11125  C 8.9823717948718 8.11125  8.4970953525641 8.25  8.04417067307692 8.5275  C 7.59124599358974 8.805  7.2011217948718 9.16875  6.87379807692308 9.61875  C 6.82051282051282 9.69375  6.75390625 9.79875  6.67397836538462 9.93375  C 6.59405048076923 10.06875  6.53886217948718 10.15875  6.50841346153846 10.20375  C 6.42467948717949 10.33125  6.31430288461539 10.395  6.17728365384615 10.395  C 6.0478766025641 10.395  5.94130608974359 10.33125  5.85757211538462 10.20375  C 5.8271233974359 10.15875  5.77193509615385 10.06875  5.69200721153846 9.93375  C 5.61207932692308 9.79875  5.54547275641026 9.69375  5.4921875 9.61875  C 5.16486378205128 9.16875  4.77283653846154 8.805  4.31610576923077 8.5275  C 3.859375 8.25  3.37219551282051 8.11125  2.85456730769231 8.11125  C 2.4130608974359 8.11125  2.02483974358974 8.1975  1.68990384615385 8.37  C 1.35496794871795 8.5425  1.0010016025641 8.80125  0.628004807692308 9.14625  C 0.536658653846154 9.22125  0.44911858974359 9.25875  0.365384615384615 9.25875  C 0.266426282051282 9.25875  0.180789262820513 9.223125  0.108473557692308 9.151875  C 0.0361578525641026 9.080625  0 8.99625  0 8.89875  C 0 8.86125  0.00380608974358974 8.835  0.0114182692307692 8.82  C 0.353966346153846 7.4475  1.01051682692308 6.249375  1.98106971153846 5.225625  C 2.95162259615385 4.201875  4.08583733974359 3.435  5.38371394230769 2.925  C 6.6815905448718 2.415  8.0536858974359 2.16  9.5 2.16  C 10.5657051282051 2.16  11.6104767628205 2.31  12.6343149038462 2.61  C 13.6581530448718 2.91  14.5963541666667 3.335625  15.4489182692308 3.886875  C 16.3014823717949 4.438125  17.0417668269231 5.139375  17.6697716346154 5.990625  C 18.2977764423077 6.841875  18.7373798076923 7.785  18.9885817307692 8.82  Z M 10.0138221153846 0.213749999999999  C 10.158453525641 0.356249999999998  10.2307692307692 0.524999999999998  10.2307692307692 0.720000000000001  L 10.2307692307692 1.8225  C 9.91105769230769 1.8075  9.66746794871795 1.8  9.5 1.8  C 9.33253205128205 1.8  9.08894230769231 1.8075  8.76923076923077 1.8225  L 8.76923076923077 0.720000000000001  C 8.76923076923077 0.524999999999998  8.84154647435897 0.356249999999998  8.98617788461539 0.213749999999999  C 9.1308092948718 0.0712499999999991  9.30208333333333 0  9.5 0  C 9.69791666666667 0  9.86919070512821 0.0712499999999991  10.0138221153846 0.213749999999999  Z " fill-rule="nonzero" fill="#000000" stroke="none" transform="matrix(1 0 0 1 278 571 )" />
  </g>
</svg>