<?xml version="1.0" encoding="utf-8"?>
<svg version="1.1" xmlns:xlink="http://www.w3.org/1999/xlink" width="18px" height="19px" xmlns="http://www.w3.org/2000/svg">
  <g transform="matrix(1 0 0 1 -341 -571 )">
    <path d="M 14.5907494145199 11.8657174762702  C 14.9104215456675 11.1125069793412  15.0702576112412 10.322166387493  15.0702576112412 9.49469570072585  C 15.0702576112412 8.66722501395868  14.9104215456675 7.87688442211055  14.5907494145199 7.12367392518146  C 14.2710772833724 6.37046342825237  13.8389929742389 5.71980271729015  13.2944964871194 5.17169179229481  C 12.75 4.62358086729946  12.1036299765808 4.18862832681928  11.3553864168618 3.86683417085427  C 10.6071428571429 3.54504001488926  9.82201405152225 3.38414293690676  9 3.38414293690676  C 8.17798594847775 3.38414293690676  7.39285714285714 3.54504001488926  6.64461358313817 3.86683417085427  C 5.8963700234192 4.18862832681928  5.25 4.62358086729946  4.70550351288056 5.17169179229481  C 4.16100702576112 5.71980271729015  3.72892271662764 6.37046342825237  3.40925058548009 7.12367392518146  C 3.08957845433255 7.87688442211055  2.92974238875878 8.66722501395868  2.92974238875878 9.49469570072585  C 2.92974238875878 10.322166387493  3.08957845433255 11.1125069793412  3.40925058548009 11.8657174762702  C 3.72892271662764 12.6189279731993  4.16100702576112 13.2695886841615  4.70550351288056 13.8176996091569  C 5.25 14.3658105341522  5.8963700234192 14.8007630746324  6.64461358313817 15.1225572305974  C 7.39285714285714 15.4443513865624  8.17798594847775 15.6052484645449  9 15.6052484645449  C 9.82201405152225 15.6052484645449  10.6071428571429 15.4443513865624  11.3553864168618 15.1225572305974  C 12.1036299765808 14.8007630746324  12.75 14.3658105341522  13.2944964871194 13.8176996091569  C 13.8389929742389 13.2695886841615  14.2710772833724 12.6189279731993  14.5907494145199 11.8657174762702  Z M 17.9367681498829 12.1256281407035  C 18 12.2104969290899  18.0140515222482 12.3130467150568  17.9789227166276 12.4332774986041  C 17.9508196721312 12.5393634840871  17.8805620608899 12.6100874744091  17.768149882904 12.6454494695701  L 14.6908665105386 13.6638749302066  L 14.6908665105386 16.9101060859855  C 14.6908665105386 17.0232644705007  14.6451990632319 17.1152056579192  14.5538641686183 17.1859296482412  C 14.4484777517564 17.2566536385632  14.3466042154567 17.2707984366276  14.248243559719 17.2283640424344  L 11.1709601873536 16.2311557788945  L 9.27400468384075 18.8620882188721  C 9.20374707259953 18.9540294062907  9.11241217798595 19  9 19  C 8.88758782201405 19  8.79625292740047 18.9540294062907  8.72599531615925 18.8620882188721  L 6.82903981264637 16.2311557788945  L 3.75175644028103 17.2283640424344  C 3.65339578454333 17.2707984366276  3.55152224824356 17.2566536385632  3.44613583138173 17.1859296482412  C 3.35480093676815 17.1152056579192  3.30913348946136 17.0232644705007  3.30913348946136 16.9101060859855  L 3.30913348946136 13.6638749302066  L 0.231850117096019 12.6454494695701  C 0.11943793911007 12.6100874744091  0.0491803278688524 12.5393634840871  0.0210772833723653 12.4332774986041  C -0.0140515222482435 12.3130467150568  0 12.2104969290899  0.063231850117096 12.1256281407035  L 1.96018735362998 9.49469570072585  L 0.063231850117096 6.86376326074819  C 0 6.77182207332961  -0.0140515222482435 6.66927228736274  0.0210772833723653 6.55611390284757  C 0.0491803278688524 6.4500279173646  0.11943793911007 6.37930392704262  0.231850117096019 6.34394193188163  L 3.30913348946136 5.32551647124511  L 3.30913348946136 2.07928531546622  C 3.30913348946136 1.96612693095105  3.35480093676815 1.87418574353247  3.44613583138173 1.8034617532105  C 3.55152224824356 1.73273776288852  3.65339578454333 1.71859296482412  3.75175644028103 1.76102735901731  L 6.82903981264637 2.75823562255723  L 8.72599531615925 0.127303182579564  C 8.78922716627635 0.0424343941931872  8.88056206088993 0  9 0  C 9.11943793911007 0  9.21077283372365 0.0424343941931872  9.27400468384075 0.127303182579564  L 11.1709601873536 2.75823562255723  L 14.248243559719 1.76102735901731  C 14.3466042154567 1.71859296482412  14.4484777517564 1.73273776288852  14.5538641686183 1.8034617532105  C 14.6451990632319 1.87418574353247  14.6908665105386 1.96612693095105  14.6908665105386 2.07928531546622  L 14.6908665105386 5.32551647124511  L 17.768149882904 6.34394193188163  C 17.8805620608899 6.37930392704262  17.9508196721312 6.4500279173646  17.9789227166276 6.55611390284757  C 18.0140515222482 6.66927228736274  18 6.77182207332961  17.9367681498829 6.86376326074819  L 16.03981264637 9.49469570072585  L 17.9367681498829 12.1256281407035  Z " fill-rule="nonzero" fill="#000000" stroke="none" transform="matrix(1 0 0 1 341 571 )" />
  </g>
</svg>