<?xml version="1.0" encoding="utf-8"?>
<svg version="1.1" xmlns:xlink="http://www.w3.org/1999/xlink" width="17px" height="19px" xmlns="http://www.w3.org/2000/svg">
  <g transform="matrix(1 0 0 1 -971 -476 )">
    <path d="M 8.5 18.1517857142857  C 8.60897435897436 18.1517857142857  8.66346153846154 18.0952380952381  8.66346153846154 17.9821428571429  C 8.66346153846154 17.8690476190476  8.60897435897436 17.8125  8.5 17.8125  C 8.09815705128205 17.8125  7.75250400641026 17.6622953869048  7.46304086538462 17.3618861607143  C 7.17357772435898 17.0614769345238  7.02884615384615 16.7027529761905  7.02884615384615 16.2857142857143  C 7.02884615384615 16.172619047619  6.97435897435898 16.1160714285714  6.86538461538462 16.1160714285714  C 6.75641025641026 16.1160714285714  6.70192307692308 16.172619047619  6.70192307692308 16.2857142857143  C 6.70192307692308 16.8017113095238  6.87730368589744 17.2417224702381  7.22806490384615 17.6057477678571  C 7.57882612179487 17.9697730654762  8.00280448717949 18.1517857142857  8.5 18.1517857142857  Z M 16.0703125 13.9955357142857  C 16.3495592948718 14.3206845238095  16.6594551282051 14.6316964285714  17 14.9285714285714  C 17 15.296130952381  16.8705929487179 15.6142113095238  16.6117788461538 15.8828125  C 16.3529647435897 16.1514136904762  16.0464743589744 16.2857142857143  15.6923076923077 16.2857142857143  L 11.1153846153846 16.2857142857143  C 11.1153846153846 17.0349702380952  10.8599759615385 17.6746651785714  10.3491586538462 18.2047991071429  C 9.83834134615385 18.7349330357143  9.22195512820513 19  8.5 19  C 7.77804487179487 19  7.16165865384615 18.7349330357143  6.65084134615385 18.2047991071429  C 6.14002403846154 17.6746651785714  5.88461538461538 17.0349702380952  5.88461538461538 16.2857142857143  L 1.30769230769231 16.2857142857143  C 0.953525641025641 16.2857142857143  0.647035256410257 16.1514136904762  0.388221153846154 15.8828125  C 0.129407051282051 15.6142113095238  0 15.296130952381  0 14.9285714285714  C 0.340544871794872 14.6316964285714  0.650440705128205 14.3206845238095  0.9296875 13.9955357142857  C 1.2089342948718 13.6703869047619  1.49839743589744 13.248046875  1.79807692307692 12.728515625  C 2.09775641025641 12.208984375  2.35146233974359 11.6488095238095  2.55919471153846 11.0479910714286  C 2.76692708333333 10.4471726190476  2.93719951923077 9.71912202380953  3.07001201923077 8.86383928571428  C 3.20282451923077 8.00855654761905  3.26923076923077 7.08965773809524  3.26923076923077 6.10714285714286  C 3.26923076923077 5.03273809523809  3.66766826923077 4.03431919642857  4.46454326923077 3.11188616071428  C 5.26141826923077 2.189453125  6.30689102564103 1.62927827380952  7.60096153846154 1.43136160714286  C 7.54647435897436 1.29706101190476  7.51923076923077 1.15922619047619  7.51923076923077 1.01785714285714  C 7.51923076923077 0.735119047619047  7.61458333333333 0.494791666666666  7.80528846153846 0.296875  C 7.99599358974359 0.098958333333334  8.2275641025641 0  8.5 0  C 8.7724358974359 0  9.00400641025641 0.098958333333334  9.19471153846154 0.296875  C 9.38541666666667 0.494791666666666  9.48076923076923 0.735119047619047  9.48076923076923 1.01785714285714  C 9.48076923076923 1.15922619047619  9.45352564102564 1.29706101190476  9.39903846153846 1.43136160714286  C 10.693108974359 1.62927827380952  11.7385817307692 2.189453125  12.5354567307692 3.11188616071428  C 13.3323317307692 4.03431919642857  13.7307692307692 5.03273809523809  13.7307692307692 6.10714285714286  C 13.7307692307692 7.08965773809524  13.7971754807692 8.00855654761905  13.9299879807692 8.86383928571428  C 14.0628004807692 9.71912202380953  14.2330729166667 10.4471726190476  14.4408052884615 11.0479910714286  C 14.6485376602564 11.6488095238095  14.9022435897436 12.208984375  15.2019230769231 12.728515625  C 15.5016025641026 13.248046875  15.7910657051282 13.6703869047619  16.0703125 13.9955357142857  Z " fill-rule="nonzero" fill="#000000" stroke="none" transform="matrix(1 0 0 1 971 476 )" />
  </g>
</svg>