<?xml version="1.0" encoding="utf-8"?>
<svg version="1.1" xmlns:xlink="http://www.w3.org/1999/xlink" width="34px" height="18px" xmlns="http://www.w3.org/2000/svg">
  <g transform="matrix(1 0 0 1 -374 -35 )">
    <path d="M 22 14.4  L 4 14.4  L 4 3.6  L 22 3.6  L 22 14.4  Z M 32.1111111111111 2.25  L 32.1111111111111 4.5  C 32.6325231481482 4.5  33.0776909722222 4.67578125  33.4466145833333 5.02734375  C 33.8155381944444 5.37890625  34 5.803125  34 6.3  L 34 11.7  C 34 12.196875  33.8155381944444 12.62109375  33.4466145833333 12.97265625  C 33.0776909722222 13.32421875  32.6325231481482 13.5  32.1111111111111 13.5  L 32.1111111111111 15.75  C 32.1111111111111 16.36875  31.8799189814815 16.8984375  31.4175347222222 17.3390625  C 30.955150462963 17.7796875  30.3993055555556 18  29.75 18  L 2.36111111111111 18  C 1.71180555555556 18  1.15596064814815 17.7796875  0.693576388888889 17.3390625  C 0.23119212962963 16.8984375  0 16.36875  0 15.75  L 0 2.25  C 0 1.63125  0.23119212962963 1.1015625  0.693576388888889 0.6609375  C 1.15596064814815 0.220312499999997  1.71180555555556 0  2.36111111111111 0  L 29.75 0  C 30.3993055555556 0  30.955150462963 0.220312499999997  31.4175347222222 0.6609375  C 31.8799189814815 1.1015625  32.1111111111111 1.63125  32.1111111111111 2.25  Z M 30.2222222222222 11.7  L 32.1111111111111 11.7  L 32.1111111111111 6.3  L 30.2222222222222 6.3  L 30.2222222222222 2.25  C 30.2222222222222 2.11875  30.1779513888889 2.0109375  30.0894097222222 1.9265625  C 30.0008680555556 1.8421875  29.8877314814815 1.8  29.75 2  L 2.36111111111111 2  C 2.22337962962963 1.8  2.11024305555556 1.8421875  2.02170138888889 1.9265625  C 1.93315972222222 2.0109375  1.88888888888889 2.11875  2 2.25  L 2 15.75  C 1.88888888888889 15.88125  1.93315972222222 15.9890625  2.02170138888889 16.0734375  C 2.11024305555556 16.1578125  2.22337962962963 16.2  2.36111111111111 16  L 29.75 16  C 29.8877314814815 16.2  30.0008680555556 16.1578125  30.0894097222222 16.0734375  C 30.1779513888889 15.9890625  30.2222222222222 15.88125  30.2222222222222 15.75  L 30.2222222222222 11.7  Z " fill-rule="nonzero" fill="#000000" stroke="none" transform="matrix(1 0 0 1 374 35 )" />
  </g>
</svg>