<?xml version="1.0" encoding="utf-8"?>
<svg version="1.1" xmlns:xlink="http://www.w3.org/1999/xlink" width="15px" height="17px" xmlns="http://www.w3.org/2000/svg">
  <g transform="matrix(1 0 0 1 -349 -35 )">
    <path d="M 7.5 16.2410714285714  C 7.59615384615385 16.2410714285714  7.64423076923077 16.1904761904762  7.64423076923077 16.0892857142857  C 7.64423076923077 15.9880952380952  7.59615384615385 15.9375  7.5 15.9375  C 7.14543269230769 15.9375  6.84044471153846 15.8031063988095  6.58503605769231 15.5343191964286  C 6.32962740384615 15.2655319940476  6.20192307692308 14.944568452381  6.20192307692308 14.5714285714286  C 6.20192307692308 14.4702380952381  6.15384615384615 14.4196428571429  6.05769230769231 14.4196428571429  C 5.96153846153846 14.4196428571429  5.91346153846154 14.4702380952381  5.91346153846154 14.5714285714286  C 5.91346153846154 15.0331101190476  6.06820913461539 15.4268043154762  6.37770432692308 15.7525111607143  C 6.68719951923077 16.0782180059524  7.06129807692308 16.2410714285714  7.5 16.2410714285714  Z M 14.1796875 12.5223214285714  C 14.4260817307692 12.813244047619  14.6995192307692 13.0915178571429  15 13.3571428571429  C 15 13.6860119047619  14.8858173076923 13.9706101190476  14.6574519230769 14.2109375  C 14.4290865384615 14.4512648809524  14.1586538461538 14.5714285714286  13.8461538461538 14.5714285714286  L 9.80769230769231 14.5714285714286  C 9.80769230769231 15.2418154761905  9.58233173076923 15.8141741071429  9.13161057692308 16.2885044642857  C 8.68088942307692 16.7628348214286  8.13701923076923 17  7.5 17  C 6.86298076923077 17  6.31911057692308 16.7628348214286  5.86838942307692 16.2885044642857  C 5.41766826923077 15.8141741071429  5.19230769230769 15.2418154761905  5.19230769230769 14.5714285714286  L 1.15384615384615 14.5714285714286  C 0.841346153846154 14.5714285714286  0.570913461538462 14.4512648809524  0.342548076923077 14.2109375  C 0.114182692307692 13.9706101190476  0 13.6860119047619  0 13.3571428571429  C 0.300480769230769 13.0915178571429  0.573918269230769 12.813244047619  0.8203125 12.5223214285714  C 1.06670673076923 12.2313988095238  1.32211538461538 11.853515625  1.58653846153846 11.388671875  C 1.85096153846154 10.923828125  2.07481971153846 10.422619047619  2.25811298076923 9.88504464285714  C 2.44140625 9.34747023809524  2.59164663461538 8.69605654761905  2.70883413461538 7.93080357142857  C 2.82602163461538 7.16555059523809  2.88461538461538 6.34337797619047  2.88461538461538 5.46428571428571  C 2.88461538461538 4.50297619047619  3.23617788461538 3.60965401785714  3.93930288461538 2.78431919642857  C 4.64242788461538 1.958984375  5.56490384615385 1.45777529761905  6.70673076923077 1.28069196428571  C 6.65865384615385 1.16052827380952  6.63461538461538 1.03720238095238  6.63461538461538 0.910714285714286  C 6.63461538461538 0.657738095238095  6.71875 0.442708333333333  6.88701923076923 0.265625  C 7.05528846153846 0.0885416666666673  7.25961538461539 0  7.5 0  C 7.74038461538462 0  7.94471153846154 0.0885416666666673  8.11298076923077 0.265625  C 8.28125 0.442708333333333  8.36538461538462 0.657738095238095  8.36538461538462 0.910714285714286  C 8.36538461538462 1.03720238095238  8.34134615384615 1.16052827380952  8.29326923076923 1.28069196428571  C 9.43509615384616 1.45777529761905  10.3575721153846 1.958984375  11.0606971153846 2.78431919642857  C 11.7638221153846 3.60965401785714  12.1153846153846 4.50297619047619  12.1153846153846 5.46428571428571  C 12.1153846153846 6.34337797619047  12.1739783653846 7.16555059523809  12.2911658653846 7.93080357142857  C 12.4083533653846 8.69605654761905  12.55859375 9.34747023809524  12.7418870192308 9.88504464285714  C 12.9251802884615 10.422619047619  13.1490384615385 10.923828125  13.4134615384615 11.388671875  C 13.6778846153846 11.853515625  13.9332932692308 12.2313988095238  14.1796875 12.5223214285714  Z " fill-rule="nonzero" fill="#000000" stroke="none" transform="matrix(1 0 0 1 349 35 )" />
  </g>
</svg>