<?xml version="1.0" encoding="utf-8"?>
<svg version="1.1" xmlns:xlink="http://www.w3.org/1999/xlink" width="6px" height="20px" xmlns="http://www.w3.org/2000/svg">
  <g transform="matrix(1 0 0 1 -391 -74 )">
    <path d="M 5.5625 14.9431818181818  C 5.85416666666667 15.2083333333333  6 15.530303030303  6 15.9090909090909  L 6 18.6363636363636  C 6 19.0151515151515  5.85416666666667 19.3371212121212  5.5625 19.6022727272727  C 5.27083333333333 19.8674242424242  4.91666666666667 20  4.5 20  L 1.5 20  C 1.08333333333333 20  0.729166666666667 19.8674242424242  0.4375 19.6022727272727  C 0.145833333333333 19.3371212121212  0 19.0151515151515  0 18.6363636363636  L 0 15.9090909090909  C 0 15.530303030303  0.145833333333333 15.2083333333333  0.4375 14.9431818181818  C 0.729166666666667 14.6780303030303  1.08333333333333 14.5454545454545  1.5 14.5454545454545  L 4.5 14.5454545454545  C 4.91666666666667 14.5454545454545  5.27083333333333 14.6780303030303  5.5625 14.9431818181818  Z M 5.5625 7.67045454545455  C 5.85416666666667 7.93560606060606  6 8.25757575757576  6 8.63636363636363  L 6 11.3636363636364  C 6 11.7424242424242  5.85416666666667 12.0643939393939  5.5625 12.3295454545455  C 5.27083333333333 12.594696969697  4.91666666666667 12.7272727272727  4.5 12.7272727272727  L 1.5 12.7272727272727  C 1.08333333333333 12.7272727272727  0.729166666666667 12.594696969697  0.4375 12.3295454545455  C 0.145833333333333 12.0643939393939  0 11.7424242424242  0 11.3636363636364  L 0 8.63636363636363  C 0 8.25757575757576  0.145833333333333 7.93560606060606  0.4375 7.67045454545455  C 0.729166666666667 7.40530303030303  1.08333333333333 7.27272727272727  1.5 7.27272727272727  L 4.5 7.27272727272727  C 4.91666666666667 7.27272727272727  5.27083333333333 7.40530303030303  5.5625 7.67045454545455  Z M 5.5625 0.397727272727273  C 5.85416666666667 0.662878787878787  6 0.984848484848484  6 1.36363636363636  L 6 4.09090909090909  C 6 4.46969696969697  5.85416666666667 4.79166666666667  5.5625 5.05681818181818  C 5.27083333333333 5.3219696969697  4.91666666666667 5.45454545454545  4.5 5.45454545454545  L 1.5 5.45454545454545  C 1.08333333333333 5.45454545454545  0.729166666666667 5.3219696969697  0.4375 5.05681818181818  C 0.145833333333333 4.79166666666667  0 4.46969696969697  0 4.09090909090909  L 0 1.36363636363636  C 0 0.984848484848484  0.145833333333333 0.662878787878787  0.4375 0.397727272727273  C 0.729166666666667 0.132575757575757  1.08333333333333 0  1.5 0  L 4.5 0  C 4.91666666666667 0  5.27083333333333 0.132575757575757  5.5625 0.397727272727273  Z " fill-rule="nonzero" fill="#7f7f7f" stroke="none" transform="matrix(1 0 0 1 391 74 )" />
  </g>
</svg>