<?xml version="1.0" encoding="utf-8"?>
<svg version="1.1" xmlns:xlink="http://www.w3.org/1999/xlink" width="11px" height="19px" xmlns="http://www.w3.org/2000/svg">
  <g transform="matrix(1 0 0 1 -39 -59 )">
    <path d="M 10.8109965635739 1.14228456913828  C 10.9369988545246 1.26920507682031  11 1.41516366065464  11 1.58016032064128  C 11 1.74515698062792  10.9369988545246 1.89111556446226  10.8109965635739 2.01803607214429  L 3.38316151202749 9.5  L 10.8109965635739 16.9819639278557  C 10.9369988545246 17.1088844355377  11 17.2548430193721  11 17.4198396793587  C 11 17.5848363393454  10.9369988545246 17.7307949231797  10.8109965635739 17.8577154308617  L 9.8659793814433 18.809619238477  C 9.73997709049256 18.936539746159  9.5950744558992 19  9.43127147766323 19  C 9.26746849942726 19  9.12256586483391 18.936539746159  8.99656357388316 18.809619238477  L 0.189003436426117 9.93787575150301  C 0.0630011454753723 9.81095524382097  0 9.66499665998664  0 9.5  C 0 9.33500334001336  0.0630011454753723 9.18904475617902  0.189003436426117 9.06212424849699  L 8.99656357388316 0.190380761523046  C 9.12256586483391 0.0634602538410147  9.26746849942726 0  9.43127147766323 0  C 9.5950744558992 0  9.73997709049256 0.0634602538410147  9.8659793814433 0.190380761523046  L 10.8109965635739 1.14228456913828  Z " fill-rule="nonzero" fill="#000000" stroke="none" transform="matrix(1 0 0 1 39 59 )" />
  </g>
</svg>