<?xml version="1.0" encoding="utf-8"?>
<svg version="1.1" xmlns:xlink="http://www.w3.org/1999/xlink" width="40px" height="24px" xmlns="http://www.w3.org/2000/svg">
  <g transform="matrix(1 0 0 1 -354 -111 )">
    <path d="M 0.99609375 16.659375  C 0.33203125 15.178125  0 13.625  0 12  C 0 10.375  0.33203125 8.821875  0.99609375 7.340625  C 1.66015625 5.859375  2.548828125 4.584375  3.662109375 3.515625  C 4.775390625 2.446875  6.103515625 1.59375  7.646484375 0.956249999999999  C 9.189453125 0.318750000000001  10.8072916666667 0  12.5 0  L 27.5 0  C 29.1927083333333 0  30.810546875 0.318750000000001  32.353515625 0.956249999999999  C 33.896484375 1.59375  35.224609375 2.446875  36.337890625 3.515625  C 37.451171875 4.584375  38.33984375 5.859375  39.00390625 7.340625  C 39.66796875 8.821875  40 10.375  40 12  C 40 13.625  39.66796875 15.178125  39.00390625 16.659375  C 38.33984375 18.140625  37.451171875 19.415625  36.337890625 20.484375  C 35.224609375 21.553125  33.896484375 22.40625  32.353515625 23.04375  C 30.810546875 23.68125  29.1927083333333 24  27.5 24  L 12.5 24  C 10.8072916666667 24  9.189453125 23.68125  7.646484375 23.04375  C 6.103515625 22.40625  4.775390625 21.553125  3.662109375 20.484375  C 2.548828125 19.415625  1.66015625 18.140625  0.99609375 16.659375  Z M 23.623046875 20.840625  C 24.853515625 21.346875  26.1458333333333 21.6  27.5 21.6  C 28.8541666666667 21.6  30.146484375 21.346875  31.376953125 20.840625  C 32.607421875 20.334375  33.671875 19.65  34.5703125 18.7875  C 35.46875 17.925  36.181640625 16.903125  36.708984375 15.721875  C 37.236328125 14.540625  37.5 13.3  37.5 12  C 37.5 10.7  37.236328125 9.459375  36.708984375 8.278125  C 36.181640625 7.096875  35.46875 6.075  34.5703125 5.2125  C 33.671875 4.35  32.607421875 3.665625  31.376953125 3.159375  C 30.146484375 2.653125  28.8541666666667 2.4  27.5 2.4  C 26.1458333333333 2.4  24.853515625 2.653125  23.623046875 3.159375  C 22.392578125 3.665625  21.328125 4.35  20.4296875 5.2125  C 19.53125 6.075  18.818359375 7.096875  18.291015625 8.278125  C 17.763671875 9.459375  17.5 10.7  17.5 12  C 17.5 13.3  17.763671875 14.540625  18.291015625 15.721875  C 18.818359375 16.903125  19.53125 17.925  20.4296875 18.7875  C 21.328125 19.65  22.392578125 20.334375  23.623046875 20.840625  Z " fill-rule="nonzero" fill="#000000" stroke="none" transform="matrix(1 0 0 1 354 111 )" />
  </g>
</svg>