<?xml version="1.0" encoding="utf-8"?>
<svg version="1.1" xmlns:xlink="http://www.w3.org/1999/xlink" width="13px" height="19px" xmlns="http://www.w3.org/2000/svg">
  <g transform="matrix(1 0 0 1 -381 -165 )">
    <path d="M 12.7766323024055 9.06212424849699  C 12.9255441008018 9.18904475617902  13 9.33500334001336  13 9.5  C 13 9.66499665998664  12.9255441008018 9.81095524382097  12.7766323024055 9.93787575150301  L 2.36769759450172 18.809619238477  C 2.21878579610538 18.936539746159  2.0475372279496 19  1.85395189003436 19  C 1.66036655211913 19  1.48911798396334 18.936539746159  1.34020618556701 18.809619238477  L 0.223367697594502 17.8577154308617  C 0.0744558991981673 17.7307949231797  0 17.5848363393454  0 17.4198396793587  C 0 17.2548430193721  0.0744558991981673 17.1088844355377  0.223367697594502 16.9819639278557  L 9.00171821305842 9.5  L 0.223367697594502 2.01803607214429  C 0.0744558991981673 1.89111556446226  0 1.74515698062792  0 1.58016032064128  C 0 1.41516366065464  0.0744558991981673 1.26920507682031  0.223367697594502 1.14228456913828  L 1.34020618556701 0.190380761523046  C 1.48911798396334 0.0634602538410147  1.66036655211913 0  1.85395189003436 0  C 2.0475372279496 0  2.21878579610538 0.0634602538410147  2.36769759450172 0.190380761523046  L 12.7766323024055 9.06212424849699  Z " fill-rule="nonzero" fill="#7f7f7f" stroke="none" transform="matrix(1 0 0 1 381 165 )" />
  </g>
</svg>