<?xml version="1.0" encoding="utf-8"?>
<svg version="1.1" xmlns:xlink="http://www.w3.org/1999/xlink" width="26px" height="26px" xmlns="http://www.w3.org/2000/svg">
  <defs>
    <mask fill="white" id="clip1">
      <path d="M 0 13  C 0 5.72000000000003  5.72000000000003 0  13 0  C 20.28 0  26 5.72000000000003  26 13  C 26 20.28  20.28 26  13 26  C 9.78906434759404 26  6.88160517960409 24.8872528904748  4.63456149364106 23.0186976690354  C 1.78699108431584 20.6507674903747  0 17.0690643475941  0 13  Z " fill-rule="evenodd" />
    </mask>
  </defs>
  <g transform="matrix(1 0 0 1 -418 -460 )">
    <path d="M 0 13  C 0 5.72000000000003  5.72000000000003 0  13 0  C 20.28 0  26 5.72000000000003  26 13  C 26 20.28  20.28 26  13 26  C 9.78906434759404 26  6.88160517960409 24.8872528904748  4.63456149364106 23.0186976690354  C 1.78699108431584 20.6507674903747  0 17.0690643475941  0 13  Z " fill-rule="nonzero" fill="#ffffff" stroke="none" transform="matrix(1 0 0 1 418 460 )" />
    <path d="M 0 13  C 0 5.72000000000003  5.72000000000003 0  13 0  C 20.28 0  26 5.72000000000003  26 13  C 26 20.28  20.28 26  13 26  C 9.78906434759404 26  6.88160517960409 24.8872528904748  4.63456149364106 23.0186976690354  C 1.78699108431584 20.6507674903747  0 17.0690643475941  0 13  Z " stroke-width="2" stroke="#797979" fill="none" transform="matrix(1 0 0 1 418 460 )" mask="url(#clip1)" />
  </g>
</svg>