<?xml version="1.0" encoding="utf-8"?>
<svg version="1.1" xmlns:xlink="http://www.w3.org/1999/xlink" width="31px" height="21px" xmlns="http://www.w3.org/2000/svg">
  <g transform="matrix(1 0 0 1 -355 -96 )">
    <path d="M 30.44 2.8989898989899  C 30.8133333333333 3.22895622895623  31 3.62962962962963  31 4.1010101010101  C 31 4.57239057239057  30.8133333333333 4.97306397306397  30.44 5.3030303030303  L 15.96 18.1010101010101  L 13.24 20.5050505050505  C 12.8666666666667 20.8350168350168  12.4133333333333 21  11.88 21  C 11.3466666666667 21  10.8933333333333 20.8350168350168  10.52 20.5050505050505  L 7.8 18.1010101010101  L 0.56 11.7020202020202  C 0.186666666666667 11.3720538720539  0 10.9713804713805  0 10.5  C 0 10.0286195286195  0.186666666666667 9.62794612794613  0.56 9.2979797979798  L 3.28 6.89393939393939  C 3.65333333333333 6.56397306397306  4.10666666666667 6.3989898989899  4.64 6.3989898989899  C 5.17333333333333 6.3989898989899  5.62666666666667 6.56397306397306  6 6.89393939393939  L 11.88 12.1085858585859  L 25 0.494949494949495  C 25.3733333333333 0.164983164983164  25.8266666666667 0  26.36 0  C 26.8933333333333 0  27.3466666666667 0.164983164983164  27.72 0.494949494949495  L 30.44 2.8989898989899  Z " fill-rule="nonzero" fill="#000000" stroke="none" transform="matrix(1 0 0 1 355 96 )" />
  </g>
</svg>