<?xml version="1.0" encoding="utf-8"?>
<svg version="1.1" xmlns:xlink="http://www.w3.org/1999/xlink" width="28px" height="26px" xmlns="http://www.w3.org/2000/svg">
  <g transform="matrix(1 0 0 1 -34 -94 )">
    <path d="M 27.3400673400673 19.4343434343434  C 27.7800224466891 19.8428731762065  28 20.3389450056117  28 20.9225589225589  C 28 21.5061728395062  27.7800224466891 22.0022446689113  27.3400673400673 22.4107744107744  L 24.1346801346801 25.3872053872054  C 23.6947250280584 25.7957351290685  23.1604938271605 26  22.5319865319865 26  C 21.9034792368126 26  21.3692480359147 25.7957351290685  20.9292929292929 25.3872053872054  L 14 18.952861952862  L 7.07070707070707 25.3872053872054  C 6.6307519640853 25.7957351290685  6.09652076318743 26  5.46801346801347 26  C 4.83950617283951 26  4.30527497194164 25.7957351290685  3.86531986531987 25.3872053872054  L 0.65993265993266 22.4107744107744  C 0.219977553310887 22.0022446689113  0 21.5061728395062  0 20.9225589225589  C 0 20.3389450056117  0.219977553310887 19.8428731762065  0.65993265993266 19.4343434343434  L 7.58922558922559 13  L 0.65993265993266 6.56565656565656  C 0.219977553310887 6.15712682379349  0 5.66105499438833  0 5.07744107744108  C 0 4.49382716049383  0.219977553310887 3.99775533108866  0.65993265993266 3.58922558922559  L 3.86531986531987 0.612794612794613  C 4.30527497194164 0.204264870931537  4.83950617283951 0  5.46801346801347 0  C 6.09652076318743 0  6.6307519640853 0.204264870931537  7.07070707070707 0.612794612794613  L 14 7.04713804713805  L 20.9292929292929 0.612794612794613  C 21.3692480359147 0.204264870931537  21.9034792368126 0  22.5319865319865 0  C 23.1604938271605 0  23.6947250280584 0.204264870931537  24.1346801346801 0.612794612794613  L 27.3400673400673 3.58922558922559  C 27.7800224466891 3.99775533108866  28 4.49382716049383  28 5.07744107744108  C 28 5.66105499438833  27.7800224466891 6.15712682379349  27.3400673400673 6.56565656565656  L 20.4107744107744 13  L 27.3400673400673 19.4343434343434  Z " fill-rule="nonzero" fill="#000000" stroke="none" transform="matrix(1 0 0 1 34 94 )" />
  </g>
</svg>