<?xml version="1.0" encoding="utf-8"?>
<svg version="1.1" xmlns:xlink="http://www.w3.org/1999/xlink" width="34px" height="19px" xmlns="http://www.w3.org/2000/svg">
  <g transform="matrix(1 0 0 1 -353 -484 )">
    <path d="M 0.8466796875 13.188671875  C 0.2822265625 12.016015625  0 10.7864583333333  0 9.5  C 0 8.21354166666667  0.2822265625 6.983984375  0.8466796875 5.811328125  C 1.4111328125 4.638671875  2.16650390625 3.629296875  3.11279296875 2.783203125  C 4.05908203125 1.937109375  5.18798828125 1.26171875  6.49951171875 0.757031249999999  C 7.81103515625 0.25234375  9.18619791666667 0  10.625 0  L 23.375 0  C 24.8138020833333 0  26.18896484375 0.25234375  27.50048828125 0.757031249999999  C 28.81201171875 1.26171875  29.94091796875 1.937109375  30.88720703125 2.783203125  C 31.83349609375 3.629296875  32.5888671875 4.638671875  33.1533203125 5.811328125  C 33.7177734375 6.983984375  34 8.21354166666667  34 9.5  C 34 10.7864583333333  33.7177734375 12.016015625  33.1533203125 13.188671875  C 32.5888671875 14.361328125  31.83349609375 15.370703125  30.88720703125 16.216796875  C 29.94091796875 17.062890625  28.81201171875 17.73828125  27.50048828125 18.24296875  C 26.18896484375 18.74765625  24.8138020833333 19  23.375 19  L 10.625 19  C 9.18619791666667 19  7.81103515625 18.74765625  6.49951171875 18.24296875  C 5.18798828125 17.73828125  4.05908203125 17.062890625  3.11279296875 16.216796875  C 2.16650390625 15.370703125  1.4111328125 14.361328125  0.8466796875 13.188671875  Z M 20.07958984375 16.498828125  C 21.12548828125 16.899609375  22.2239583333333 17.1  23.375 17.1  C 24.5260416666667 17.1  25.62451171875 16.899609375  26.67041015625 16.498828125  C 27.71630859375 16.098046875  28.62109375 15.55625  29.384765625 14.8734375  C 30.1484375 14.190625  30.75439453125 13.381640625  31.20263671875 12.446484375  C 31.65087890625 11.511328125  31.875 10.5291666666667  31.875 9.5  C 31.875 8.47083333333333  31.65087890625 7.488671875  31.20263671875 6.553515625  C 30.75439453125 5.618359375  30.1484375 4.809375  29.384765625 4.1265625  C 28.62109375 3.44375  27.71630859375 2.901953125  26.67041015625 2.501171875  C 25.62451171875 2.100390625  24.5260416666667 1.9  23.375 1.9  C 22.2239583333333 1.9  21.12548828125 2.100390625  20.07958984375 2.501171875  C 19.03369140625 2.901953125  18.12890625 3.44375  17.365234375 4.1265625  C 16.6015625 4.809375  15.99560546875 5.618359375  15.54736328125 6.553515625  C 15.09912109375 7.488671875  14.875 8.47083333333333  14.875 9.5  C 14.875 10.5291666666667  15.09912109375 11.511328125  15.54736328125 12.446484375  C 15.99560546875 13.381640625  16.6015625 14.190625  17.365234375 14.8734375  C 18.12890625 15.55625  19.03369140625 16.098046875  20.07958984375 16.498828125  Z " fill-rule="nonzero" fill="#000000" stroke="none" transform="matrix(1 0 0 1 353 484 )" />
  </g>
</svg>