<?xml version="1.0" encoding="utf-8"?>
<svg version="1.1" xmlns:xlink="http://www.w3.org/1999/xlink" width="18px" height="50px" xmlns="http://www.w3.org/2000/svg">
  <g transform="matrix(1 0 0 1 -614 -188 )">
    <path d="M 17.465625 7.67299107142857  C 17.821875 8.02641369047619  18 8.44494047619047  18 8.92857142857143  C 18 9.41220238095238  17.821875 9.83072916666666  17.465625 10.1841517857143  C 17.109375 10.5375744047619  16.6875 10.7142857142857  16.2 10.7142857142857  L 12.6 10.7142857142857  L 12.6 39.2857142857143  L 16.2 39.2857142857143  C 16.6875 39.2857142857143  17.109375 39.4624255952381  17.465625 39.8158482142857  C 17.821875 40.1692708333333  18 40.5877976190476  18 41.0714285714286  C 18 41.5550595238095  17.821875 41.9735863095238  17.465625 42.3270089285714  L 10.265625 49.4698660714286  C 9.909375 49.8232886904762  9.4875 50  9 50  C 8.5125 50  8.090625 49.8232886904762  7.734375 49.4698660714286  L 0.534375 42.3270089285714  C 0.178125 41.9735863095238  0 41.5550595238095  0 41.0714285714286  C 0 40.5877976190476  0.178125 40.1692708333333  0.534375 39.8158482142857  C 0.890625000000001 39.4624255952381  1.3125 39.2857142857143  1.8 39.2857142857143  L 5.4 39.2857142857143  L 5.4 10.7142857142857  L 1.8 10.7142857142857  C 1.3125 10.7142857142857  0.890625000000001 10.5375744047619  0.534375 10.1841517857143  C 0.178125 9.83072916666666  0 9.41220238095238  0 8.92857142857143  C 0 8.44494047619047  0.178125 8.02641369047619  0.534375 7.67299107142857  L 7.734375 0.53013392857143  C 8.090625 0.176711309523814  8.5125 0  9 0  C 9.4875 0  9.909375 0.176711309523814  10.265625 0.53013392857143  L 17.465625 7.67299107142857  Z " fill-rule="nonzero" fill="#000000" stroke="none" transform="matrix(1 0 0 1 614 188 )" />
  </g>
</svg>