<?xml version="1.0" encoding="utf-8"?>
<svg version="1.1" xmlns:xlink="http://www.w3.org/1999/xlink" width="9px" height="17px" xmlns="http://www.w3.org/2000/svg">
  <g transform="matrix(1 0 0 1 -857 -456 )">
    <path d="M 8.84536082474227 8.10821643286573  C 8.94845360824742 8.22177688710755  9 8.35237140948564  9 8.5  C 9 8.64762859051436  8.94845360824742 8.77822311289245  8.84536082474227 8.89178356713427  L 1.63917525773196 16.8296593186373  C 1.5360824742268 16.9432197728791  1.41752577319588 17  1.28350515463918 17  C 1.14948453608247 17  1.03092783505155 16.9432197728791  0.927835051546392 16.8296593186373  L 0.154639175257732 15.9779559118236  C 0.0515463917525774 15.8643954575818  0 15.7338009352037  0 15.5861723446894  C 0 15.438543754175  0.0515463917525774 15.3079492317969  0.154639175257732 15.1943887775551  L 6.2319587628866 8.5  L 0.154639175257732 1.80561122244489  C 0.0515463917525774 1.69205076820307  0 1.56145624582498  0 1.41382765531062  C 0 1.26619906479626  0.0515463917525774 1.13560454241817  0.154639175257732 1.02204408817635  L 0.927835051546392 0.170340681362726  C 1.03092783505155 0.0567802271209079  1.14948453608247 0  1.28350515463918 0  C 1.41752577319588 0  1.5360824742268 0.0567802271209079  1.63917525773196 0.170340681362726  L 8.84536082474227 8.10821643286573  Z " fill-rule="nonzero" fill="#0000bf" stroke="none" transform="matrix(1 0 0 1 857 456 )" />
  </g>
</svg>