<?xml version="1.0" encoding="utf-8"?>
<svg version="1.1" xmlns:xlink="http://www.w3.org/1999/xlink" width="144px" height="145px" xmlns="http://www.w3.org/2000/svg">
  <g transform="matrix(1 0 0 1 -144 -289 )">
    <path d="M 216 289  C 256.32 289  288 320.9  288 361.5  C 288 402.1  256.32 434  216 434  C 175.68 434  144 402.1  144 361.5  C 144 320.9  175.68 289  216 289  Z " fill-rule="nonzero" fill="#ffffff" stroke="none" />
    <path d="M 216 289.5  C 256.04 289.5  287.5 321.18  287.5 361.5  C 287.5 401.82  256.04 433.5  216 433.5  C 175.96 433.5  144.5 401.82  144.5 361.5  C 144.5 321.18  175.96 289.5  216 289.5  Z " stroke-width="1" stroke="#797979" fill="none" />
  </g>
</svg>