<?xml version="1.0" encoding="utf-8"?>
<svg version="1.1" xmlns:xlink="http://www.w3.org/1999/xlink" width="26px" height="15px" xmlns="http://www.w3.org/2000/svg">
  <g transform="matrix(1 0 0 1 -203 -596 )">
    <path d="M 25.7394789579158 12.2680412371134  C 25.9131596526386 12.4398625429553  26 12.6374570446735  26 12.860824742268  C 26 13.0841924398625  25.9131596526386 13.2817869415808  25.7394789579158 13.4536082474227  L 24.436873747495 14.7422680412371  C 24.2631930527722 14.914089347079  24.063460253841 15  23.8376753507014 15  C 23.6118904475618 15  23.4121576486306 14.914089347079  23.2384769539078 14.7422680412371  L 13 4.61340206185567  L 2.76152304609218 14.7422680412371  C 2.58784235136941 14.914089347079  2.38810955243821 15  2.1623246492986 15  C 1.93653974615898 15  1.73680694722779 14.914089347079  1.56312625250501 14.7422680412371  L 0.260521042084168 13.4536082474227  C 0.0868403473613897 13.2817869415808  0 13.0841924398625  0 12.860824742268  C 0 12.6374570446735  0.0868403473613897 12.4398625429553  0.260521042084168 12.2680412371134  L 12.4008016032064 0.257731958762887  C 12.5744822979292 0.0859106529209602  12.7742150968604 0  13 0  C 13.2257849031396 0  13.4255177020708 0.0859106529209602  13.5991983967936 0.257731958762887  L 25.7394789579158 12.2680412371134  Z " fill-rule="nonzero" fill="#aaaaaa" stroke="none" transform="matrix(1 0 0 1 203 596 )" />
  </g>
</svg>