<?xml version="1.0" encoding="utf-8"?>
<svg version="1.1" xmlns:xlink="http://www.w3.org/1999/xlink" width="31px" height="47px" xmlns="http://www.w3.org/2000/svg">
  <g transform="matrix(1 0 0 1 -576 -582 )">
    <path d="M 30.2637997432606 21.9673913043478  C 30.7545999144202 22.7975543478261  31 23.7660778985507  31 24.8729619565217  C 31 25.9585597826087  30.7545999144202 26.9164402173913  30.2637997432606 27.7466032608696  L 28.7715019255456 30.1413043478261  C 28.2674368848952 30.9501811594203  27.6638853230638 31.3546195652174  26.9608472400513 31.3546195652174  C 26.2445442875481 31.3546195652174  25.6476251604621 30.9501811594203  25.1700898587933 30.1413043478261  L 19 20.7860054347826  L 19 43.2642663043478  C 19.3202824133504 44.3711503623188  19.0715661103979 45.2704936594203  18.5741335044929 45.9622961956522  C 18.0767008985879 46.6540987318841  17.4764655541292 47  16.7734274711168 47  L 14.2265725288832 47  C 13.5235344458708 47  12.9232991014121 46.6540987318841  12.4258664955071 45.9622961956522  C 11.9284338896021 45.2704936594203  11.6797175866496 44.3711503623188  12 43.2642663043478  L 12 20.7860054347826  L 5.82991014120668 30.1413043478261  C 5.35237483953787 30.9501811594203  4.75545571245186 31.3546195652174  4.03915275994865 31.3546195652174  C 3.32284980744544 31.3546195652174  2.72593068035944 30.9501811594203  2.24839537869063 30.1413043478261  L 0.75609756097561 27.7466032608696  C 0.252032520325203 26.9377264492754  0 25.9798460144928  0 24.8729619565217  C 0 23.7447916666667  0.252032520325203 22.776268115942  0.75609756097561 21.9673913043478  L 13.709242618742 1.18138586956522  C 14.17351305092 0.393795289855071  14.770432178006 0  15.5 0  C 16.2163029525032 0  16.8198545143346 0.393795289855071  17.3106546854942 1.18138586956522  L 30.2637997432606 21.9673913043478  Z " fill-rule="nonzero" fill="#000000" stroke="none" transform="matrix(1 0 0 1 576 582 )" />
  </g>
</svg>