<?xml version="1.0" encoding="utf-8"?>
<svg version="1.1" xmlns:xlink="http://www.w3.org/1999/xlink" width="34px" height="21px" xmlns="http://www.w3.org/2000/svg">
  <g transform="matrix(1 0 0 1 -945 -411 )">
    <path d="M 18.45263671875 13.756640625  C 18.90087890625 12.723046875  19.125 11.6375  19.125 10.5  C 19.125 9.3625  18.90087890625 8.276953125  18.45263671875 7.243359375  C 18.00439453125 6.209765625  17.3984375 5.315625  16.634765625 4.5609375  C 15.87109375 3.80625  14.96630859375 3.207421875  13.92041015625 2.764453125  C 12.87451171875 2.321484375  11.7760416666667 2.1  10.625 2.1  C 9.47395833333333 2.1  8.37548828125 2.321484375  7.32958984375 2.764453125  C 6.28369140625 3.207421875  5.37890625 3.80625  4.615234375 4.5609375  C 3.8515625 5.315625  3.24560546875 6.209765625  2.79736328125 7.243359375  C 2.34912109375 8.276953125  2.125 9.3625  2.125 10.5  C 2.125 11.6375  2.34912109375 12.723046875  2.79736328125 13.756640625  C 3.24560546875 14.790234375  3.8515625 15.684375  4.615234375 16.4390625  C 5.37890625 17.19375  6.28369140625 17.792578125  7.32958984375 18.235546875  C 8.37548828125 18.678515625  9.47395833333333 18.9  10.625 18.9  C 11.7760416666667 18.9  12.87451171875 18.678515625  13.92041015625 18.235546875  C 14.96630859375 17.792578125  15.87109375 17.19375  16.634765625 16.4390625  C 17.3984375 15.684375  18.00439453125 14.790234375  18.45263671875 13.756640625  Z M 31.20263671875 13.756640625  C 31.65087890625 12.723046875  31.875 11.6375  31.875 10.5  C 31.875 9.3625  31.65087890625 8.276953125  31.20263671875 7.243359375  C 30.75439453125 6.209765625  30.1484375 5.315625  29.384765625 4.5609375  C 28.62109375 3.80625  27.71630859375 3.207421875  26.67041015625 2.764453125  C 25.62451171875 2.321484375  24.5260416666667 2.1  23.375 2.1  L 16.966796875 2.1  C 18.2838541666667 3.084375  19.3269856770833 4.309375  20.09619140625 5.775  C 20.8653971354167 7.240625  21.25 8.815625  21.25 10.5  C 21.25 12.184375  20.8653971354167 13.759375  20.09619140625 15.225  C 19.3269856770833 16.690625  18.2838541666667 17.915625  16.966796875 18.9  L 23.375 18.9  C 24.5260416666667 18.9  25.62451171875 18.678515625  26.67041015625 18.235546875  C 27.71630859375 17.792578125  28.62109375 17.19375  29.384765625 16.4390625  C 30.1484375 15.684375  30.75439453125 14.790234375  31.20263671875 13.756640625  Z M 33.1533203125 6.423046875  C 33.7177734375 7.719140625  34 9.078125  34 10.5  C 34 11.921875  33.7177734375 13.280859375  33.1533203125 14.576953125  C 32.5888671875 15.873046875  31.83349609375 16.988671875  30.88720703125 17.923828125  C 29.94091796875 18.858984375  28.81201171875 19.60546875  27.50048828125 20.16328125  C 26.18896484375 20.72109375  24.8138020833333 21  23.375 21  L 10.625 21  C 9.18619791666667 21  7.81103515625 20.72109375  6.49951171875 20.16328125  C 5.18798828125 19.60546875  4.05908203125 18.858984375  3.11279296875 17.923828125  C 2.16650390625 16.988671875  1.4111328125 15.873046875  0.8466796875 14.576953125  C 0.2822265625 13.280859375  0 11.921875  0 10.5  C 0 9.078125  0.2822265625 7.719140625  0.8466796875 6.423046875  C 1.4111328125 5.126953125  2.16650390625 4.011328125  3.11279296875 3.076171875  C 4.05908203125 2.141015625  5.18798828125 1.39453125  6.49951171875 0.836718749999999  C 7.81103515625 0.27890625  9.18619791666667 0  10.625 0  L 23.375 0  C 24.8138020833333 0  26.18896484375 0.27890625  27.50048828125 0.836718749999999  C 28.81201171875 1.39453125  29.94091796875 2.141015625  30.88720703125 3.076171875  C 31.83349609375 4.011328125  32.5888671875 5.126953125  33.1533203125 6.423046875  Z " fill-rule="nonzero" fill="#000000" stroke="none" transform="matrix(1 0 0 1 945 411 )" />
  </g>
</svg>