<?xml version="1.0" encoding="utf-8"?>
<svg version="1.1" xmlns:xlink="http://www.w3.org/1999/xlink" width="187px" height="187px" xmlns="http://www.w3.org/2000/svg">
  <g transform="matrix(1 0 0 1 -141 -198 )">
    <path d="M 107.987630208333 47.845703125  C 108.718098958333 48.576171875  109.083333333333 49.5095486111111  109 50.6458333333333  L 109 105.1875  C 109.083333333333 106.323784722222  108.718098958333 107.257161458333  107.987630208333 107.987630208333  C 107.257161458333 108.718098958333  106.323784722222 109.083333333333  105.1875 109  L 66.2291666666667 109  C 65.0928819444445 109.083333333333  64.1595052083333 108.718098958333  63.4290364583333 107.987630208333  C 62.6985677083333 107.257161458333  62.3333333333333 106.323784722222  62.3333333333333 105.1875  L 62.3333333333333 97.3958333333333  C 62.3333333333333 96.2595486111111  62.6985677083333 95.326171875  63.4290364583333 94.595703125  C 64.1595052083333 93.865234375  65.0928819444445 93.5  66.2291666666667 93  L 93 93  L 93 50.6458333333333  C 93.5 49.5095486111111  93.865234375 48.576171875  94.595703125 47.845703125  C 95.326171875 47.115234375  96.2595486111111 46.75  97.3958333333333 46.75  L 105.1875 46.75  C 106.323784722222 46.75  107.257161458333 47.115234375  107.987630208333 47.845703125  Z M 150.841796875 126.736328125  C 156.766710069444 116.590928819444  159.729166666667 105.512152777778  159.729166666667 93.5  C 159.729166666667 81.4878472222222  156.766710069444 70.4090711805556  150.841796875 60.263671875  C 144.916883680556 50.1182725694444  136.881727430556 42.0831163194444  126.736328125 36.158203125  C 116.590928819444 30.2332899305556  105.512152777778 27.2708333333333  93.5 27.2708333333333  C 81.4878472222222 27.2708333333333  70.4090711805556 30.2332899305556  60.263671875 36.158203125  C 50.1182725694445 42.0831163194444  42.0831163194445 50.1182725694444  36.158203125 60.263671875  C 30.2332899305556 70.4090711805556  27.2708333333333 81.4878472222222  27.2708333333333 93.5  C 27.2708333333333 105.512152777778  30.2332899305556 116.590928819444  36.158203125 126.736328125  C 42.0831163194445 136.881727430556  50.1182725694445 144.916883680556  60.263671875 150.841796875  C 70.4090711805556 156.766710069444  81.4878472222222 159.729166666667  93.5 159.729166666667  C 105.512152777778 159.729166666667  116.590928819444 156.766710069444  126.736328125 150.841796875  C 136.881727430556 144.916883680556  144.916883680556 136.881727430556  150.841796875 126.736328125  Z M 174.460286458333 46.5673828125  C 182.820095486111 60.8926866319444  187 76.5368923611111  187 93.5  C 187 110.463107638889  182.820095486111 126.107313368056  174.460286458333 140.4326171875  C 166.100477430556 154.757921006944  154.757921006944 166.100477430556  140.4326171875 174.460286458333  C 126.107313368056 182.820095486111  110.463107638889 187  93.5 187  C 76.5368923611111 187  60.8926866319445 182.820095486111  46.5673828125 174.460286458333  C 32.2420789930556 166.100477430556  20.8995225694444 154.757921006944  12.5397135416667 140.4326171875  C 4.17990451388889 126.107313368056  0 110.463107638889  0 93.5  C 0 76.5368923611111  4.17990451388889 60.8926866319444  12.5397135416667 46.5673828125  C 20.8995225694444 32.2420789930556  32.2420789930556 20.8995225694444  46.5673828125 12.5397135416667  C 60.8926866319445 4.17990451388887  76.5368923611111 0  93.5 0  C 110.463107638889 0  126.107313368056 4.17990451388887  140.4326171875 12.5397135416667  C 154.757921006944 20.8995225694444  166.100477430556 32.2420789930556  174.460286458333 46.5673828125  Z " fill-rule="nonzero" fill="#000000" stroke="none" transform="matrix(1 0 0 1 141 198 )" />
  </g>
</svg>