<?xml version="1.0" encoding="utf-8"?>
<svg version="1.1" xmlns:xlink="http://www.w3.org/1999/xlink" width="45px" height="45px" xmlns="http://www.w3.org/2000/svg">
  <g transform="matrix(1 0 0 1 -164 -636 )">
    <path d="M 31.611328125 31.611328125  C 31.787109375 31.435546875  31.875 31.2109375  31 30.9375  L 31 14.0625  C 31.875 13.7890625  31.787109375 13.564453125  31.611328125 13.388671875  C 31.435546875 13.212890625  31.2109375 13.125  30.9375 14  L 14.0625 14  C 13.7890625 13.125  13.564453125 13.212890625  13.388671875 13.388671875  C 13.212890625 13.564453125  13.125 13.7890625  14 14.0625  L 14 30.9375  C 13.125 31.2109375  13.212890625 31.435546875  13.388671875 31.611328125  C 13.564453125 31.787109375  13.7890625 31.875  14.0625 31  L 30.9375 31  C 31.2109375 31.875  31.435546875 31.787109375  31.611328125 31.611328125  Z M 41.982421875 11.2060546875  C 43.994140625 14.6533203125  45 18.41796875  45 22.5  C 45 26.58203125  43.994140625 30.3466796875  41.982421875 33.7939453125  C 39.970703125 37.2412109375  37.2412109375 39.970703125  33.7939453125 41.982421875  C 30.3466796875 43.994140625  26.58203125 45  22.5 45  C 18.41796875 45  14.6533203125 43.994140625  11.2060546875 41.982421875  C 7.7587890625 39.970703125  5.029296875 37.2412109375  3.017578125 33.7939453125  C 1.005859375 30.3466796875  0 26.58203125  0 22.5  C 0 18.41796875  1.005859375 14.6533203125  3.017578125 11.2060546875  C 5.029296875 7.7587890625  7.7587890625 5.029296875  11.2060546875 3.017578125  C 14.6533203125 1.005859375  18.41796875 0  22.5 0  C 26.58203125 0  30.3466796875 1.005859375  33.7939453125 3.017578125  C 37.2412109375 5.029296875  39.970703125 7.7587890625  41.982421875 11.2060546875  Z " fill-rule="nonzero" fill="#000000" stroke="none" transform="matrix(1 0 0 1 164 636 )" />
  </g>
</svg>