<?xml version="1.0" encoding="utf-8"?>
<svg version="1.1" xmlns:xlink="http://www.w3.org/1999/xlink" width="45px" height="45px" xmlns="http://www.w3.org/2000/svg">
  <g transform="matrix(1 0 0 1 -264 -636 )">
    <path d="M 20.361328125 31.611328125  C 20.537109375 31.435546875  20.625 31.2109375  21 30.9375  L 21 14.0625  C 20.625 13.7890625  20.537109375 13.564453125  20.361328125 13.388671875  C 20.185546875 13.212890625  19.9609375 13.125  19.6875 13.125  L 12.1875 13.125  C 11.9140625 13.125  11.689453125 13.212890625  11.513671875 13.388671875  C 11.337890625 13.564453125  11.25 13.7890625  12 14.0625  L 12 30.9375  C 11.25 31.2109375  11.337890625 31.435546875  11.513671875 31.611328125  C 11.689453125 31.787109375  11.9140625 31.875  12.1875 31.875  L 19.6875 31.875  C 19.9609375 31.875  20.185546875 31.787109375  20.361328125 31.611328125  Z M 33.486328125 31.611328125  C 33.662109375 31.435546875  33.75 31.2109375  33 30.9375  L 33 14.0625  C 33.75 13.7890625  33.662109375 13.564453125  33.486328125 13.388671875  C 33.310546875 13.212890625  33.0859375 13.125  32.8125 13.125  L 25.3125 13.125  C 25.0390625 13.125  24.814453125 13.212890625  24.638671875 13.388671875  C 24.462890625 13.564453125  24.375 13.7890625  24 14.0625  L 24 30.9375  C 24.375 31.2109375  24.462890625 31.435546875  24.638671875 31.611328125  C 24.814453125 31.787109375  25.0390625 31.875  25.3125 31.875  L 32.8125 31.875  C 33.0859375 31.875  33.310546875 31.787109375  33.486328125 31.611328125  Z M 41.982421875 11.2060546875  C 43.994140625 14.6533203125  45 18.41796875  45 22.5  C 45 26.58203125  43.994140625 30.3466796875  41.982421875 33.7939453125  C 39.970703125 37.2412109375  37.2412109375 39.970703125  33.7939453125 41.982421875  C 30.3466796875 43.994140625  26.58203125 45  22.5 45  C 18.41796875 45  14.6533203125 43.994140625  11.2060546875 41.982421875  C 7.7587890625 39.970703125  5.029296875 37.2412109375  3.017578125 33.7939453125  C 1.005859375 30.3466796875  0 26.58203125  0 22.5  C 0 18.41796875  1.005859375 14.6533203125  3.017578125 11.2060546875  C 5.029296875 7.7587890625  7.7587890625 5.029296875  11.2060546875 3.017578125  C 14.6533203125 1.005859375  18.41796875 0  22.5 0  C 26.58203125 0  30.3466796875 1.005859375  33.7939453125 3.017578125  C 37.2412109375 5.029296875  39.970703125 7.7587890625  41.982421875 11.2060546875  Z " fill-rule="nonzero" fill="#000000" stroke="none" transform="matrix(1 0 0 1 264 636 )" />
  </g>
</svg>